<?xml version="1.0" standalone="no"?>
<!DOCTYPE svg PUBLIC "-//W3C//DTD SVG 20010904//EN"
 "http://www.w3.org/TR/2001/REC-SVG-20010904/DTD/svg10.dtd">
<svg version="1.0" xmlns="http://www.w3.org/2000/svg"
 width="1024.000000pt" height="1024.000000pt" viewBox="0 0 1024.000000 1024.000000"
 preserveAspectRatio="xMidYMid meet">

<g transform="translate(0.000000,1024.000000) scale(0.100000,-0.100000)"
fill="#000000" stroke="none">
<path d="M0 5120 l0 -5120 5120 0 5120 0 0 5120 0 5120 -5120 0 -5120 0 0
-5120z m7515 2445 c165 -43 272 -165 283 -320 6 -90 -21 -158 -84 -214 -143
-126 -384 -49 -384 123 0 61 19 104 64 143 20 18 36 37 36 43 0 20 -68 9 -128
-21 -192 -96 -365 -381 -442 -728 -22 -103 -100 -654 -100 -711 0 -11 25 28
55 86 101 195 210 319 329 375 84 39 185 43 264 9 64 -28 128 -95 138 -144 4
-23 -14 -202 -49 -484 -70 -558 -69 -554 -61 -575 18 -48 109 12 163 107 53
93 57 116 156 928 14 115 25 212 25 218 0 14 51 59 90 79 51 26 78 31 186 32
81 1 101 -3 123 -19 54 -40 55 -49 21 -314 -35 -274 -55 -442 -69 -578 -16
-147 14 -190 96 -140 43 26 87 87 134 186 69 145 92 254 160 772 14 112 28
133 107 162 47 18 73 21 147 18 104 -4 149 -25 179 -81 18 -32 17 -40 -13
-297 -37 -321 -85 -757 -105 -975 -9 -88 -25 -257 -36 -375 -54 -558 -139
-850 -331 -1131 -172 -250 -410 -425 -674 -495 -87 -23 -120 -27 -255 -27
-128 0 -169 4 -234 21 -400 110 -624 464 -516 816 18 58 31 79 79 126 71 71
140 100 242 100 81 0 126 -17 164 -62 27 -31 32 -76 14 -109 -5 -11 -35 -36
-65 -55 -98 -63 -130 -146 -100 -262 19 -75 49 -124 109 -179 82 -76 175 -108
307 -107 232 2 441 146 606 419 118 194 194 459 229 800 15 148 45 594 45 668
0 38 -1 37 -40 -39 -96 -185 -211 -286 -360 -314 -103 -20 -227 24 -276 98
l-22 32 -19 -33 c-56 -94 -146 -162 -259 -196 -142 -42 -360 -64 -405 -41 -29
16 -49 64 -49 120 0 43 49 451 106 874 8 65 13 124 10 132 -10 26 -40 14 -87
-35 -91 -95 -193 -308 -243 -513 -25 -100 -68 -392 -81 -554 -4 -44 -10 -85
-13 -91 -9 -14 -262 -65 -324 -66 -39 -1 -53 4 -77 27 -32 30 -57 110 -48 149
5 21 5 21 -11 -3 -80 -117 -165 -191 -287 -250 -90 -43 -159 -60 -243 -60
-126 0 -275 64 -363 157 -28 30 -52 53 -53 51 -2 -2 -11 -23 -20 -48 -26 -66
-101 -174 -153 -219 -25 -23 -71 -53 -102 -68 -49 -24 -68 -28 -146 -28 -74 0
-98 4 -132 22 -50 27 -100 85 -115 136 -6 20 -14 37 -17 37 -3 0 -19 -25 -35
-56 -33 -62 -117 -143 -186 -177 -37 -18 -62 -22 -140 -22 -87 0 -100 3 -149
30 -63 35 -117 94 -133 147 -6 21 -14 38 -17 38 -3 0 -22 -24 -41 -52 -75
-111 -222 -234 -352 -293 -128 -58 -295 -80 -420 -54 -265 55 -426 317 -390
635 34 304 233 608 477 730 103 51 208 70 309 55 202 -28 328 -149 343 -329
12 -142 -37 -255 -166 -382 -70 -70 -105 -95 -186 -137 -55 -28 -147 -66 -205
-83 -58 -18 -107 -34 -109 -36 -12 -11 36 -98 73 -132 133 -123 400 -43 535
158 57 86 77 147 106 327 75 455 273 747 557 819 60 16 97 15 201 -2 33 -6 37
-4 37 15 0 59 34 75 185 85 112 8 200 -6 232 -35 33 -32 31 -83 -16 -410 -40
-281 -75 -547 -87 -654 -5 -48 -3 -63 9 -74 34 -28 89 22 144 130 26 53 27 57
28 254 1 183 3 208 27 298 69 252 230 475 426 590 171 100 416 95 534 -11 68
-62 83 -101 83 -222 0 -95 -3 -110 -27 -156 -38 -72 -117 -140 -185 -160 -101
-29 -199 6 -217 78 -16 65 16 108 89 120 24 4 49 51 40 78 -16 49 -68 64 -124
36 -83 -43 -186 -221 -218 -376 -23 -116 -24 -289 0 -356 37 -106 125 -160
244 -152 98 7 166 43 246 128 114 120 147 224 201 620 85 627 123 817 213
1075 131 377 346 651 598 766 125 57 275 73 390 44z m-1620 -380 c190 -52 321
-176 355 -336 33 -153 -45 -320 -169 -364 -88 -31 -185 -10 -197 42 -18 81
-26 103 -53 140 -17 23 -50 50 -78 64 -43 21 -61 24 -168 24 -114 -1 -126 -3
-241 -42 -128 -44 -319 -135 -574 -275 -450 -247 -817 -421 -1061 -502 -275
-91 -478 -127 -816 -142 -84 -3 -153 -9 -153 -12 0 -2 -11 -59 -25 -126 -54
-268 -205 -1139 -231 -1336 -24 -183 -22 -378 5 -460 47 -147 139 -253 261
-302 48 -20 74 -23 200 -23 130 0 155 3 245 29 126 37 315 112 515 206 875
410 1227 527 2170 719 190 38 381 77 425 85 44 8 186 35 315 60 734 141 981
168 1196 131 251 -44 381 -198 302 -355 -30 -58 -75 -84 -149 -85 -47 0 -64 6
-110 34 -159 101 -226 121 -409 121 -203 0 -497 -46 -1180 -185 -742 -151
-1055 -234 -1493 -397 -378 -140 -545 -223 -1107 -551 -465 -272 -624 -344
-839 -381 -200 -34 -365 -15 -519 60 -169 82 -288 222 -352 410 -31 92 -34
110 -38 259 -7 250 8 333 193 1062 112 442 194 738 251 915 18 59 34 108 34
110 0 8 -179 -14 -265 -32 -177 -39 -342 -149 -418 -282 -105 -183 -45 -390
128 -438 163 -46 129 -193 -64 -284 -53 -24 -82 -31 -152 -34 -106 -5 -176 13
-266 70 -184 116 -264 368 -198 623 48 188 218 388 428 504 206 114 407 163
732 179 136 7 140 8 152 32 7 14 42 87 78 163 216 449 541 740 920 823 121 26
315 24 432 -5 141 -35 251 -108 294 -199 27 -56 24 -157 -7 -199 -77 -107
-280 -89 -315 27 -26 85 -112 130 -247 130 -222 -1 -487 -170 -652 -414 -50
-75 -134 -241 -158 -313 l-11 -33 68 0 c99 0 324 19 421 35 373 64 770 248
1345 623 226 148 368 232 510 303 241 120 361 151 560 144 66 -2 147 -11 180
-20z m525 -3160 c71 -37 80 -144 17 -201 -29 -27 -54 -36 -153 -59 -507 -115
-842 -212 -1317 -381 -206 -74 -267 -82 -306 -40 -30 32 -43 91 -30 140 25 95
92 124 704 311 455 139 878 243 993 244 38 1 75 -5 92 -14z"/>
<path d="M4582 5640 c-125 -72 -201 -254 -252 -605 -25 -172 -26 -292 -4 -323
62 -89 208 82 269 316 13 47 63 375 90 590 l7 52 -29 0 c-15 0 -52 -14 -81
-30z"/>
<path d="M3349 5386 c-97 -66 -179 -257 -179 -418 l0 -68 28 0 c45 0 146 56
192 106 52 57 98 153 111 235 22 138 -54 211 -152 145z"/>
</g>
</svg>
